<svg version="1.2" xmlns="http://www.w3.org/2000/svg" viewBox="0 0 1024 182" width="1024" height="182">
	<title>Yeni Proje</title>
	<style>
		.s0 { fill: #000000 } 
	</style>
	<path id="Fit Diyet" class="s0" aria-label="Fit Diyet"  d="m66.1 155h-23.4q-3.6 0-5.2-1.7-1.7-1.7-1.7-5.3v-97.8q0-2 0.4-3.3 0.7-1.4 1.7-2.3l19.5-16.5q0.7-0.6 2-0.9 1.3-0.4 2.8-0.4h67.4q3.6 0 5.3 1.6 1.6 1.7 1.6 5.3v18q0 1.9-0.6 3.3-0.4 1.4-1.5 2.3l-16.9 14q3.5 0 5.1 1.7 1.7 1.6 1.7 5.3v18.1q0 1.9-0.6 3.3-0.5 1.4-1.5 2.3l-19.7 16.3q-0.6 0.6-1.9 1-1.2 0.5-2.7 0.5h-5.3v11.8q0 1.9-0.6 3.3-0.5 1.3-1.5 2.3l-19.7 16.3q-0.6 0.6-1.9 1-1.2 0.5-2.8 0.5zm-3.9-18h23.4q2.9 0 4.1-1.2 1.4-1.4 1.4-4.2v-29.8h26.2q2.9 0 4.1-1.2 1.4-1.4 1.4-4.2v-18.1q0-2.9-1.4-4.1-1.2-1.4-4.1-1.4h-26.2v-15.7h38.5q2.8 0 4-1.2 1.4-1.3 1.4-4.2v-18q0-2.9-1.4-4.1-1.2-1.3-4-1.3h-67.4q-2.8 0-4.2 1.3-1.2 1.2-1.2 4.1v97.9q0 2.8 1.2 4.2 1.4 1.2 4.2 1.2zm12.6-13.6h-1.6v-81.5h48.2v1.5h-46.6v43.2h34.4v1.5h-34.4zm138.3 31.5h-64.4q-3.6 0-5.2-1.6-1.7-1.7-1.7-5.3v-18q0-1.9 0.4-3.3 0.7-1.4 1.7-2.3l18.3-15.4v-33.6h-13.5q-3.6 0-5.2-1.7-1.7-1.7-1.7-5.3v-18.3q0-1.9 0.4-3.3 0.7-1.3 1.7-2.2l19.5-16.5q0.7-0.6 2-0.9 1.3-0.5 2.8-0.5h64.3q3.7 0 5.3 1.7 1.7 1.7 1.7 5.3v18.3q0 1.9-0.6 3.3-0.5 1.3-1.5 2.2l-18 15.1v34h13.1q3.7 0 5.3 1.7 1.7 1.6 1.7 5.3v17.9q0 2-0.6 3.4-0.5 1.3-1.5 2.2l-19.7 16.3q-0.6 0.6-1.9 1.1-1.2 0.4-2.7 0.4zm-44.9-17.9h64.3q2.9 0 4.1-1.2 1.4-1.4 1.4-4.3v-17.9q0-2.9-1.4-4.1-1.2-1.4-4.1-1.4h-14.6v-50.7h14.6q2.9 0 4.1-1.2 1.4-1.4 1.4-4.2v-18.3q0-2.9-1.4-4.1-1.2-1.4-4.1-1.4h-64.3q-2.8 0-4.2 1.4-1.2 1.2-1.2 4.1v18.3q0 2.8 1.2 4.2 1.4 1.2 4.2 1.2h15v50.7h-15q-2.8 0-4.2 1.4-1.2 1.2-1.2 4.1v17.9q0 2.9 1.2 4.3 1.4 1.2 4.2 1.2zm56.2-15.1v1.5h-48v-1.5h23.4v-78.6h-23.4v-1.5h48v1.5h-23.1v78.6zm79.1 33h-24.4q-3.7 0-5.3-1.6-1.7-1.7-1.7-5.3v-72.6h-20.7q-3.6 0-5.3-1.7-1.6-1.7-1.6-5.3v-18.3q0-1.9 0.4-3.3 0.6-1.3 1.7-2.2l19.5-16.5q0.7-0.6 1.9-0.9 1.4-0.5 2.9-0.5h79.7q3.7 0 5.3 1.7 1.7 1.7 1.7 5.3v18.3q0 1.9-0.6 3.3-0.5 1.3-1.5 2.2l-19.7 16.3q-0.6 0.7-1.9 1.1-1.2 0.5-2.8 0.5h-1.2v56.1q0 2-0.6 3.4-0.4 1.3-1.5 2.2l-19.6 16.3q-0.6 0.6-2 1.1-1.2 0.4-2.7 0.4zm-5-17.9h24.5q2.9 0 4.1-1.2 1.3-1.4 1.3-4.3v-74.1h22.2q2.9 0 4.1-1.2 1.4-1.4 1.4-4.2v-18.3q0-2.9-1.4-4.1-1.2-1.4-4.1-1.4h-79.7q-2.9 0-4.2 1.4-1.2 1.2-1.2 4.1v18.3q0 2.8 1.2 4.2 1.3 1.2 4.2 1.2h22.2v74.1q0 2.9 1.2 4.3 1.4 1.2 4.2 1.2zm13-13.6h-1.5v-80.1h-30.9v-1.5h63.4v1.5h-31zm207.3 7.3l-19.6 16.3q-4.7 3.9-11.9 6-7.3 2-17.1 2h-50.9q-3.6 0-5.3-1.7-1.6-1.6-1.6-5.2v-97.9q0-2 0.4-3.3 0.6-1.4 1.7-2.3l19.5-16.4q0.7-0.6 1.9-0.9 1.4-0.5 2.9-0.5h50.9q19.8 0 29.1 8 9.6 8 9.6 24.3v47.1q0 8.2-2.5 14.4-2.4 6-7.1 10.1zm-80 6.3h50.9q18.9 0 27.9-7.5 9.2-7.6 9.2-23.3v-47.1q0-15.7-9.2-23.2-9-7.6-27.9-7.6h-50.9q-2.9 0-4.2 1.4-1.2 1.2-1.2 4.1v97.8q0 2.9 1.2 4.2 1.3 1.2 4.2 1.2zm47.6-13.6h-36.6v-81.5h36.6q7.7 0 12.4 1.7 4.8 1.6 7.4 4.5 2.5 2.7 3.4 6.6 0.9 3.8 0.9 8.2v40q0 4.4-0.9 8.2-0.7 3.7-3.3 6.5-2.6 2.7-7.4 4.3-4.8 1.5-12.5 1.5zm0-80h-35.1v78.5h35.1q7.2 0 11.6-1.3 4.5-1.5 6.9-3.9 2.5-2.6 3.2-6.1 0.9-3.6 0.9-7.7v-40q0-4.1-0.9-7.7-0.9-3.6-3.3-6.2-2.4-2.6-6.9-4.1-4.4-1.5-11.5-1.5zm-18.7 65.1v-51.3h17.9q3.6 0 5.3 1.8 1.8 1.6 1.8 5.4v36.7q0 3.8-1.8 5.6-1.7 1.8-5.3 1.8zm4.1-1.5v-26.1q0-2-0.6-3.4-0.6-1.3-2-1.9v31.4zm137.3 48h-64.3q-3.7 0-5.3-1.7-1.7-1.6-1.7-5.2v-18q0-2 0.5-3.3 0.6-1.4 1.6-2.3l18.3-15.4v-33.7h-13.4q-3.7 0-5.3-1.6-1.7-1.7-1.7-5.3v-18.3q0-2 0.5-3.3 0.6-1.4 1.6-2.3l19.5-16.4q0.8-0.6 2-0.9 1.3-0.5 2.8-0.5h64.4q3.6 0 5.3 1.7 1.6 1.6 1.6 5.3v18.2q0 2-0.6 3.3-0.4 1.4-1.5 2.3l-18 15.1v34h13.2q3.6 0 5.3 1.6 1.6 1.7 1.6 5.3v18q0 2-0.6 3.3-0.4 1.4-1.5 2.3l-19.6 16.3q-0.6 0.6-2 1.1-1.2 0.4-2.7 0.4zm-44.9-18h64.4q2.8 0 4-1.2 1.4-1.3 1.4-4.2v-18q0-2.8-1.4-4-1.2-1.4-4-1.4h-14.7v-50.7h14.7q2.8 0 4-1.2 1.4-1.4 1.4-4.3v-18.2q0-2.9-1.4-4.1-1.2-1.4-4-1.4h-64.4q-2.8 0-4.2 1.4-1.2 1.2-1.2 4.1v18.2q0 2.9 1.2 4.3 1.4 1.2 4.2 1.2h15v50.7h-15q-2.8 0-4.2 1.4-1.2 1.2-1.2 4v18q0 2.9 1.2 4.2 1.4 1.2 4.2 1.2zm56.2-15.1v1.5h-48v-1.5h23.4v-78.5h-23.4v-1.5h48v1.5h-23.1v78.5zm82.9 33.1h-24.5q-3.7 0-5.4-1.7-1.5-1.6-1.5-5.2v-18.9l-22.8-30.5q-3.6-4.9-4.8-8.5-1.2-3.6-1.2-11v-29q0-2 0.4-3.3 0.6-1.4 1.7-2.3l19.5-16.4q0.7-0.6 1.9-0.9 1.4-0.5 2.9-0.5h23.2q3.7 0 5.3 1.7 1.7 1.6 1.7 5.3v24.7q0 1.4 0.1 2.7 0.2 1.4 0.9 2.9l1.9 2.6v-16.5q0-2 0.4-3.3 0.6-1.4 1.7-2.3l19.4-16.4q0.8-0.6 2-0.9 1.4-0.5 2.9-0.5h22.5q3.6 0 5.3 1.7 1.6 1.6 1.6 5.3v28.9q0 7.4-1.2 11.1-1.2 3.6-4.8 8.4l-22.7 30.7v18.7q0 2-0.6 3.3-0.4 1.4-1.5 2.3l-19.6 16.3q-0.6 0.6-2 1.1-1.2 0.4-2.7 0.4zm-5-18h24.5q2.9 0 4.1-1.2 1.3-1.3 1.3-4.2v-19.2l23-31.1q3.3-4.7 4.5-8.1 1.2-3.5 1.2-10.5v-28.9q0-2.9-1.3-4.1-1.3-1.4-4.1-1.4h-22.5q-2.9 0-4.2 1.4-1.3 1.2-1.3 4.1v24.7q0 1.5-0.1 3.2-0.2 1.6-1.2 3.2l-7 10.8q-0.7 1.4-1.6 2-0.8 0.6-2 0.6h-1.5q-1.2 0-2.1-0.6-0.8-0.6-1.5-2l-7-10.8q-1-1.6-1.2-3.2-0.1-1.7-0.1-3.2v-24.7q0-2.9-1.4-4.1-1.2-1.4-4.1-1.4h-23.2q-2.9 0-4.2 1.4-1.2 1.2-1.2 4.1v28.9q0 7 1 10.5 1.2 3.4 4.7 8.1l23.1 31v19.3q0 2.9 1.2 4.2 1.4 1.2 4.2 1.2zm14.1-39.4h-1.1v25.8h-1.5v-25.8h-1.5q-3.3 0-6-1.5-2.6-1.5-5-4.8l-14.7-20.4q-1.6-2.3-1.9-5.3-0.3-3-0.3-6.3v-17.4h1.5v17.4q0 3.1 0.3 6 0.3 2.7 1.8 5l14.6 20.4q2 3 4.6 4.2 2.5 1.2 5.1 1.2h4.1q2.8 0 5.1-1.2 2.4-1.4 4.7-4.2l15.1-20.4q1.5-2 1.8-4.8 0.3-3.1 0.3-6.2v-17.4h1.5v17.4q0 3.3-0.3 6.3-0.1 2.9-2 5.3l-15.1 20.4q-2.4 3.3-5.1 4.8-2.6 1.5-6 1.5zm132.9 57.4h-70.1q-3.6 0-5.3-1.7-1.7-1.6-1.7-5.2v-97.9q0-2 0.5-3.3 0.6-1.4 1.7-2.3l19.4-16.4q0.8-0.6 2-0.9 1.4-0.5 2.9-0.5h70q3.7 0 5.3 1.7 1.7 1.6 1.7 5.3v17.6q0 2-0.6 3.3-0.5 1.4-1.5 2.3l-13 10.7q1.5 0.8 2.1 2.3 0.7 1.5 0.7 3.9v16.2q0 1.9-0.6 3.3-0.4 1.4-1.5 2.3l-13.4 11.3h20.8q3.7 0 5.3 1.6 1.7 1.7 1.7 5.3v17.7q0 2-0.6 3.3-0.5 1.4-1.5 2.3l-19.7 16.3q-0.6 0.6-1.9 1.1-1.2 0.4-2.7 0.4zm-50.6-18h70q2.9 0 4.1-1.2 1.4-1.3 1.4-4.2v-17.7q0-2.8-1.4-4-1.2-1.4-4.1-1.4h-41.6v-13h29.4q2.9 0 4.1-1.2 1.3-1.4 1.3-4.2v-16.2q0-2.9-1.3-4.1-1.2-1.3-4.1-1.3h-29.4v-11.6h41.6q2.9 0 4.1-1.3 1.4-1.3 1.4-4.2v-17.6q0-2.9-1.4-4.1-1.2-1.4-4.1-1.4h-70q-2.9 0-4.3 1.4-1.2 1.2-1.2 4.1v97.8q0 2.9 1.2 4.2 1.4 1.2 4.3 1.2zm12.5-15.1h49.4v1.5h-50.9v-81.5h50.9v1.5h-49.4v37.9h37.1v1.5h-37.1zm127.7 33.1h-24.4q-3.6 0-5.3-1.7-1.7-1.6-1.7-5.3v-72.6h-20.7q-3.6 0-5.2-1.6-1.7-1.7-1.7-5.3v-18.3q0-2 0.5-3.3 0.6-1.4 1.6-2.3l19.5-16.4q0.8-0.6 2-1 1.3-0.4 2.8-0.4h79.8q3.6 0 5.2 1.7 1.7 1.6 1.7 5.2v18.3q0 2-0.6 3.3-0.5 1.4-1.5 2.3l-19.6 16.3q-0.6 0.6-2 1.1-1.2 0.4-2.7 0.4h-1.2v56.2q0 2-0.6 3.3-0.5 1.4-1.5 2.3l-19.7 16.3q-0.6 0.6-1.9 1-1.2 0.5-2.8 0.5zm-4.9-18h24.4q2.9 0 4.1-1.2 1.4-1.3 1.4-4.2v-74.2h22.2q2.8 0 4-1.2 1.4-1.3 1.4-4.2v-18.3q0-2.8-1.4-4-1.2-1.4-4-1.4h-79.8q-2.8 0-4.2 1.4-1.2 1.2-1.2 4v18.3q0 2.9 1.2 4.2 1.4 1.2 4.2 1.2h22.2v74.2q0 2.9 1.2 4.2 1.4 1.2 4.3 1.2zm12.9-13.6h-1.5v-80h-30.9v-1.5h63.4v1.5h-31z"/>
</svg>